<svg width="106" height="68" viewBox="0 0 106 68" fill="none" xmlns="http://www.w3.org/2000/svg">
<rect x="39.833" y="48.6559" width="6.31098" height="12.8323" fill="url(#paint0_linear_74_101)"/>
<rect x="39.833" y="48.6559" width="6.31098" height="12.8323" fill="#F5F5F5" fill-opacity="0.4"/>
<ellipse cx="46.3549" cy="55.072" rx="6.31098" ry="6.41616" fill="url(#paint1_linear_74_101)"/>
<path d="M3.43772 46V16.891H21.6532V22.427H10.0007V28.2756H19.912V33.7671H10.0007V40.4639H22.0997V46H3.43772ZM27.897 46V16.891H36.1118C39.0882 16.891 41.6628 17.3969 43.8355 18.4089C46.038 19.4209 47.7346 20.9984 48.9251 23.1414C50.1157 25.2546 50.711 27.978 50.711 31.3115C50.711 34.6451 50.1157 37.3982 48.9251 39.571C47.7346 41.7438 46.0678 43.3659 43.9248 44.4374C41.8116 45.4791 39.3412 46 36.5136 46H27.897ZM34.4599 40.6872H35.71C37.3768 40.6872 38.8203 40.3895 40.0406 39.7942C41.2907 39.199 42.258 38.2168 42.9426 36.8476C43.6272 35.4785 43.9695 33.6331 43.9695 31.3115C43.9695 28.99 43.6272 27.1744 42.9426 25.8648C42.258 24.5254 41.2907 23.5878 40.0406 23.0521C38.8203 22.4866 37.3768 22.2038 35.71 22.2038H34.4599V40.6872ZM69.0946 46.5357C66.4456 46.5357 64.0347 45.9851 61.862 44.8839C59.719 43.7528 58.0075 42.0861 56.7277 39.8835C55.4776 37.6512 54.8526 34.8981 54.8526 31.6241C54.8526 29.2132 55.2246 27.0702 55.9687 25.1951C56.7128 23.2902 57.7397 21.6829 59.0493 20.3733C60.3589 19.0637 61.862 18.0666 63.5585 17.3821C65.2848 16.6975 67.1153 16.3552 69.0499 16.3552C71.1632 16.3552 72.9787 16.7273 74.4967 17.4713C76.0147 18.2154 77.2499 19.1084 78.2023 20.1501L74.7646 24.1236C74.0502 23.4688 73.2615 22.9628 72.3984 22.6056C71.565 22.2187 70.5232 22.0252 69.2731 22.0252C67.785 22.0252 66.4605 22.4122 65.2997 23.186C64.1389 23.9301 63.2311 25.0016 62.5763 26.4005C61.9215 27.7994 61.5941 29.4662 61.5941 31.4008C61.5941 33.395 61.8917 35.1064 62.487 36.5351C63.112 37.934 64.0198 39.0055 65.2104 39.7496C66.4307 40.4937 67.9487 40.8657 69.7643 40.8657C70.3595 40.8657 70.9399 40.7913 71.5054 40.6425C72.071 40.4937 72.5323 40.2705 72.8895 39.9728V34.9725H68.0677V29.615H78.6934V43.0087C77.7112 43.9909 76.3718 44.8243 74.6753 45.5089C73.0085 46.1935 71.1483 46.5357 69.0946 46.5357ZM84.707 46V16.891H102.922V22.427H91.2699V28.2756H101.181V33.7671H91.2699V40.4639H103.369V46H84.707Z" fill="white"/>
<path d="M30.1368 55.0851C29.9486 55.0851 29.7518 55.0395 29.5465 54.9482C29.3469 54.8512 29.1559 54.7172 28.9734 54.5461H28.9477L28.8707 54.9824H28.2034V48.917H29.0503V50.5253L29.0247 51.2525C29.2072 51.0928 29.4068 50.9616 29.6235 50.859C29.8402 50.7506 30.0598 50.6964 30.2822 50.6964C30.6359 50.6964 30.9353 50.7848 31.1805 50.9616C31.4258 51.1384 31.6111 51.3865 31.7366 51.7059C31.8678 52.0196 31.9333 52.3931 31.9333 52.8266C31.9333 53.3 31.8478 53.7077 31.6767 54.0499C31.5113 54.3864 31.2917 54.6431 31.018 54.8199C30.7442 54.9967 30.4505 55.0851 30.1368 55.0851ZM29.9743 54.3836C30.1796 54.3836 30.3649 54.3237 30.5303 54.2039C30.6957 54.0842 30.8241 53.9102 30.9153 53.6821C31.0123 53.4482 31.0607 53.1659 31.0607 52.8351C31.0607 52.5443 31.0265 52.2933 30.9581 52.0823C30.8896 51.8656 30.7813 51.7002 30.633 51.5861C30.4847 51.4664 30.2937 51.4065 30.0598 51.4065C29.9001 51.4065 29.7347 51.4493 29.5636 51.5348C29.3982 51.6204 29.2271 51.7487 29.0503 51.9198V53.9901C29.21 54.1326 29.3726 54.2353 29.538 54.298C29.7034 54.3551 29.8488 54.3836 29.9743 54.3836ZM33.1031 56.7362C33.0004 56.7362 32.9063 56.7276 32.8208 56.7105C32.7352 56.6934 32.6554 56.6734 32.5812 56.6506L32.7523 56.0005C32.8094 56.0176 32.8607 56.029 32.9063 56.0347C32.9577 56.0461 33.0061 56.0518 33.0518 56.0518C33.2799 56.0518 33.4652 55.9748 33.6078 55.8208C33.7561 55.6668 33.8673 55.4758 33.9415 55.2476L34.027 54.9568L32.3674 50.7991H33.2314L34.0185 52.9806C34.0812 53.1631 34.1439 53.357 34.2067 53.5623C34.2751 53.7619 34.3407 53.9615 34.4034 54.1612H34.4376C34.4947 53.9672 34.5517 53.7705 34.6087 53.5709C34.6658 53.3656 34.72 53.1688 34.7713 52.9806L35.4557 50.7991H36.2769L34.7371 55.2476C34.6287 55.5442 34.5032 55.8037 34.3607 56.0261C34.2181 56.2485 34.0441 56.4225 33.8388 56.548C33.6392 56.6734 33.394 56.7362 33.1031 56.7362Z" fill="white"/>
<path d="M56.76 60.0417V48.852H59.7542C60.8948 48.852 61.8701 49.0573 62.6799 49.4679C63.4898 49.8786 64.1114 50.4945 64.5449 51.3158C64.9783 52.137 65.1951 53.1636 65.1951 54.3955C65.1951 55.6274 64.9783 56.6654 64.5449 57.5095C64.1229 58.3422 63.5126 58.9752 62.7141 59.4087C61.9157 59.8307 60.9633 60.0417 59.8568 60.0417H56.76ZM58.7447 58.4334H59.6173C60.3701 58.4334 61.0089 58.2908 61.5336 58.0057C62.0697 57.7091 62.4746 57.2643 62.7484 56.6711C63.0221 56.078 63.159 55.3195 63.159 54.3955C63.159 53.483 63.0221 52.7359 62.7484 52.1542C62.4746 51.5724 62.0697 51.1447 61.5336 50.8709C61.0089 50.5972 60.3701 50.4603 59.6173 50.4603H58.7447V58.4334ZM67.2825 60.0417V51.6409H69.2501V60.0417H67.2825ZM68.2577 50.1694C67.9155 50.1694 67.6304 50.0668 67.4022 49.8614C67.1855 49.6561 67.0771 49.3824 67.0771 49.0402C67.0771 48.698 67.1855 48.4299 67.4022 48.236C67.6304 48.0307 67.9155 47.928 68.2577 47.928C68.6113 47.928 68.8965 48.0307 69.1132 48.236C69.3299 48.4299 69.4383 48.698 69.4383 49.0402C69.4383 49.3824 69.3299 49.6561 69.1132 49.8614C68.8965 50.0668 68.6113 50.1694 68.2577 50.1694ZM74.6862 63.7546C74.0132 63.7546 73.4143 63.6747 72.8896 63.515C72.3649 63.3553 71.9486 63.1101 71.6406 62.7793C71.3441 62.4599 71.1958 62.055 71.1958 61.5645C71.1958 61.2109 71.2984 60.8801 71.5037 60.5722C71.7205 60.2756 72.017 60.0075 72.3935 59.768V59.6996C72.1881 59.5627 72.0113 59.3802 71.8631 59.152C71.7148 58.9239 71.6406 58.6387 71.6406 58.2966C71.6406 57.9772 71.7319 57.6806 71.9144 57.4068C72.1083 57.1331 72.325 56.9107 72.5646 56.7396V56.6711C72.2794 56.4544 72.0227 56.1521 71.7946 55.7643C71.5779 55.3765 71.4695 54.9373 71.4695 54.4469C71.4695 53.8081 71.6235 53.2663 71.9315 52.8214C72.2395 52.3652 72.6444 52.023 73.1463 51.7948C73.6482 51.5553 74.1957 51.4355 74.7888 51.4355C75.017 51.4355 75.2394 51.4527 75.4561 51.4869C75.6728 51.5211 75.861 51.5724 76.0207 51.6409H79.032V53.0952H77.4579V53.1636C77.6176 53.3347 77.7431 53.5343 77.8344 53.7625C77.9256 53.9792 77.9712 54.2358 77.9712 54.5324C77.9712 55.1484 77.8287 55.6674 77.5435 56.0894C77.2583 56.5114 76.8762 56.8308 76.3971 57.0475C75.9181 57.2643 75.382 57.3726 74.7888 57.3726C74.6063 57.3726 74.4181 57.3555 74.2242 57.3213C74.0303 57.2871 73.8364 57.23 73.6425 57.1502C73.5284 57.2643 73.4314 57.3783 73.3516 57.4924C73.2718 57.6065 73.2318 57.7604 73.2318 57.9544C73.2318 58.1939 73.3345 58.3821 73.5398 58.519C73.7451 58.6559 74.0987 58.7243 74.6006 58.7243H76.0892C77.1043 58.7243 77.8686 58.8897 78.3819 59.2205C78.9066 59.5399 79.1689 60.0646 79.1689 60.7946C79.1689 61.3421 78.9864 61.8383 78.6214 62.2831C78.2564 62.7394 77.7374 63.0987 77.0644 63.361C76.3914 63.6234 75.5987 63.7546 74.6862 63.7546ZM74.7888 56.1407C75.0512 56.1407 75.2907 56.078 75.5074 55.9525C75.7356 55.8156 75.9124 55.6217 76.0378 55.3708C76.1747 55.1084 76.2432 54.8005 76.2432 54.4469C76.2432 53.9108 76.1006 53.5001 75.8154 53.215C75.5417 52.9298 75.1995 52.7872 74.7888 52.7872C74.3782 52.7872 74.0303 52.9298 73.7451 53.215C73.46 53.5001 73.3174 53.9108 73.3174 54.4469C73.3174 54.8005 73.3858 55.1084 73.5227 55.3708C73.6596 55.6217 73.8364 55.8156 74.0531 55.9525C74.2698 56.078 74.5151 56.1407 74.7888 56.1407ZM74.9941 62.4713C75.439 62.4713 75.8325 62.4086 76.1747 62.2831C76.5169 62.1691 76.785 62.0037 76.9789 61.7869C77.1728 61.5816 77.2697 61.3592 77.2697 61.1197C77.2697 60.7889 77.1386 60.5664 76.8762 60.4524C76.6253 60.3383 76.2603 60.2813 75.7812 60.2813H74.6348C74.4067 60.2813 74.2014 60.2699 74.0189 60.2471C73.8364 60.2243 73.6596 60.1957 73.4885 60.1615C73.2718 60.3326 73.1064 60.5094 72.9923 60.6919C72.8896 60.8744 72.8383 61.0683 72.8383 61.2737C72.8383 61.6501 73.0322 61.9409 73.42 62.1462C73.8079 62.363 74.3326 62.4713 74.9941 62.4713ZM83.9923 60.2471C83.2052 60.2471 82.4923 60.076 81.8535 59.7338C81.2262 59.3802 80.73 58.8783 80.365 58.2281C80 57.5665 79.8175 56.7681 79.8175 55.8327C79.8175 54.9202 80.0057 54.1389 80.3821 53.4887C80.7585 52.8271 81.2433 52.3195 81.8364 51.9659C82.4296 51.6123 83.0569 51.4355 83.7185 51.4355C84.4827 51.4355 85.1215 51.6066 85.6348 51.9488C86.1481 52.291 86.5302 52.7644 86.7812 53.3689C87.0435 53.9621 87.1747 54.6465 87.1747 55.4221C87.1747 55.6046 87.1633 55.7814 87.1405 55.9525C87.1291 56.1236 87.1062 56.289 87.072 56.4487H81.2889V54.943H85.4295C85.4295 54.3385 85.2926 53.8651 85.0189 53.5229C84.7451 53.1693 84.3231 52.9925 83.7527 52.9925C83.4333 52.9925 83.1197 53.0781 82.8117 53.2492C82.5151 53.4203 82.2642 53.7111 82.0589 54.1218C81.865 54.5324 81.768 55.1027 81.768 55.8327C81.768 56.4943 81.8821 57.0361 82.1102 57.4582C82.3383 57.8688 82.6406 58.1768 83.017 58.3821C83.3934 58.576 83.7984 58.673 84.2318 58.673C84.5968 58.673 84.939 58.6216 85.2584 58.519C85.5892 58.4163 85.8972 58.2737 86.1823 58.0912L86.8667 59.3574C86.4789 59.6311 86.034 59.8478 85.5321 60.0075C85.0417 60.1672 84.5284 60.2471 83.9923 60.2471ZM91.8468 60.2128C90.8773 60.2128 90.1872 59.9334 89.7766 59.3745C89.3773 58.8041 89.1777 58.0684 89.1777 57.1673V53.1978H87.98V51.7264L89.2804 51.6409L89.5199 49.006H91.1625V51.6409H93.3012V53.1978H91.1625V57.1673C91.1625 57.6578 91.2594 58.0285 91.4533 58.2794C91.6472 58.519 91.9438 58.6387 92.343 58.6387C92.4913 58.6387 92.6396 58.6273 92.7879 58.6045C92.9362 58.5817 93.0787 58.5361 93.2156 58.4677L93.5749 59.8535C93.3582 59.9562 93.1016 60.0417 92.805 60.1102C92.5084 60.1786 92.189 60.2128 91.8468 60.2128ZM98.2408 60.2471C97.545 60.2471 96.8948 60.076 96.2903 59.7338C95.6858 59.3802 95.1953 58.8783 94.8189 58.2281C94.4424 57.5665 94.2542 56.7738 94.2542 55.8499C94.2542 54.9145 94.4424 54.1218 94.8189 53.4716C95.1953 52.81 95.6858 52.3081 96.2903 51.9659C96.8948 51.6123 97.545 51.4355 98.2408 51.4355C98.948 51.4355 99.6039 51.6123 100.208 51.9659C100.813 52.3081 101.303 52.81 101.68 53.4716C102.056 54.1218 102.244 54.9145 102.244 55.8499C102.244 56.7738 102.056 57.5665 101.68 58.2281C101.303 58.8783 100.813 59.3802 100.208 59.7338C99.6039 60.076 98.948 60.2471 98.2408 60.2471ZM98.2408 58.6387C98.6514 58.6387 99.0051 58.5247 99.3016 58.2966C99.5982 58.0684 99.8263 57.7433 99.986 57.3213C100.146 56.8993 100.226 56.4088 100.226 55.8499C100.226 55.2909 100.146 54.8005 99.986 54.3784C99.8263 53.9564 99.5982 53.6313 99.3016 53.4032C99.0051 53.1636 98.6514 53.0439 98.2408 53.0439C97.8302 53.0439 97.4766 53.1636 97.18 53.4032C96.8948 53.6313 96.6724 53.9564 96.5127 54.3784C96.353 54.8005 96.2732 55.2909 96.2732 55.8499C96.2732 56.4088 96.353 56.8993 96.5127 57.3213C96.6724 57.7433 96.8948 58.0684 97.18 58.2966C97.4766 58.5247 97.8302 58.6387 98.2408 58.6387Z" fill="white"/>
<defs>
<linearGradient id="paint0_linear_74_101" x1="42.9885" y1="48.6559" x2="42.9885" y2="61.4882" gradientUnits="userSpaceOnUse">
<stop stop-color="#64CACC"/>
<stop offset="0.29502" stop-color="#B1BB8A"/>
<stop offset="0.5" stop-color="#FEAC47"/>
<stop offset="0.75" stop-color="#FE8397"/>
<stop offset="0.95002" stop-color="#FC6ACB"/>
</linearGradient>
<linearGradient id="paint1_linear_74_101" x1="46.3549" y1="48.6559" x2="46.3549" y2="61.4882" gradientUnits="userSpaceOnUse">
<stop stop-color="#64CACC"/>
<stop offset="0.29502" stop-color="#B1BB8A"/>
<stop offset="0.5" stop-color="#FEAC47"/>
<stop offset="0.75" stop-color="#FE8397"/>
<stop offset="0.95002" stop-color="#FC6ACB"/>
</linearGradient>
</defs>
</svg>
