<svg width="497" height="331" viewBox="0 0 497 331" fill="none" xmlns="http://www.w3.org/2000/svg">
<rect x="200" y="221" width="23.6066" height="48" fill="url(#paint0_linear_7_307)"/>
<rect x="200" y="221" width="23.6066" height="48" fill="#F5F5F5" fill-opacity="0.4"/>
<ellipse cx="224.393" cy="245" rx="23.6066" ry="24" fill="url(#paint1_linear_7_307)"/>
<path d="M63.859 210V101.116H131.995V121.824H88.408V143.701H125.482V164.242H88.408V189.292H133.665V210H63.859ZM155.35 210V101.116H186.078C197.212 101.116 206.842 103.009 214.969 106.794C223.208 110.579 229.554 116.48 234.007 124.496C238.461 132.401 240.687 142.588 240.687 155.057C240.687 167.526 238.461 177.825 234.007 185.952C229.554 194.079 223.319 200.147 215.303 204.155C207.399 208.052 198.158 210 187.581 210H155.35ZM179.899 190.127H184.575C190.81 190.127 196.21 189.014 200.774 186.787C205.45 184.56 209.069 180.886 211.629 175.765C214.19 170.644 215.47 163.741 215.47 155.057C215.47 146.373 214.19 139.582 211.629 134.683C209.069 129.673 205.45 126.166 200.774 124.162C196.21 122.047 190.81 120.989 184.575 120.989H179.899V190.127ZM309.452 212.004C299.543 212.004 290.525 209.944 282.398 205.825C274.382 201.594 267.98 195.36 263.193 187.121C258.517 178.771 256.179 168.473 256.179 156.226C256.179 147.208 257.571 139.192 260.354 132.178C263.137 125.053 266.978 119.041 271.877 114.142C276.776 109.243 282.398 105.514 288.744 102.953C295.201 100.392 302.048 99.112 309.285 99.112C317.19 99.112 323.981 100.504 329.659 103.287C335.337 106.07 339.957 109.41 343.52 113.307L330.661 128.17C327.989 125.721 325.039 123.828 321.81 122.492C318.693 121.045 314.796 120.321 310.12 120.321C304.553 120.321 299.599 121.768 295.257 124.663C290.915 127.446 287.519 131.454 285.07 136.687C282.621 141.92 281.396 148.154 281.396 155.391C281.396 162.85 282.509 169.252 284.736 174.596C287.074 179.829 290.47 183.837 294.923 186.62C299.488 189.403 305.166 190.795 311.957 190.795C314.184 190.795 316.355 190.517 318.47 189.96C320.585 189.403 322.311 188.568 323.647 187.455V168.751H305.611V148.711H345.357V198.811C341.683 202.485 336.673 205.602 330.327 208.163C324.092 210.724 317.134 212.004 309.452 212.004ZM367.851 210V101.116H435.987V121.824H392.4V143.701H429.474V164.242H392.4V189.292H437.657V210H367.851Z" fill="black"/>
<path d="M163.728 244.384C163.024 244.384 162.288 244.213 161.52 243.872C160.773 243.509 160.059 243.008 159.376 242.368H159.28L158.992 244H156.496V221.312H159.664V227.328L159.568 230.048C160.251 229.451 160.997 228.96 161.808 228.576C162.619 228.171 163.44 227.968 164.272 227.968C165.595 227.968 166.715 228.299 167.632 228.96C168.549 229.621 169.243 230.549 169.712 231.744C170.203 232.917 170.448 234.315 170.448 235.936C170.448 237.707 170.128 239.232 169.488 240.512C168.869 241.771 168.048 242.731 167.024 243.392C166 244.053 164.901 244.384 163.728 244.384ZM163.12 241.76C163.888 241.76 164.581 241.536 165.2 241.088C165.819 240.64 166.299 239.989 166.64 239.136C167.003 238.261 167.184 237.205 167.184 235.968C167.184 234.88 167.056 233.941 166.8 233.152C166.544 232.341 166.139 231.723 165.584 231.296C165.029 230.848 164.315 230.624 163.44 230.624C162.843 230.624 162.224 230.784 161.584 231.104C160.965 231.424 160.325 231.904 159.664 232.544V240.288C160.261 240.821 160.869 241.205 161.488 241.44C162.107 241.653 162.651 241.76 163.12 241.76ZM174.824 250.56C174.44 250.56 174.088 250.528 173.768 250.464C173.448 250.4 173.149 250.325 172.872 250.24L173.512 247.808C173.725 247.872 173.917 247.915 174.088 247.936C174.28 247.979 174.461 248 174.632 248C175.485 248 176.178 247.712 176.712 247.136C177.266 246.56 177.682 245.845 177.96 244.992L178.28 243.904L172.072 228.352H175.304L178.248 236.512C178.482 237.195 178.717 237.92 178.952 238.688C179.208 239.435 179.453 240.181 179.688 240.928H179.816C180.029 240.203 180.242 239.467 180.456 238.72C180.669 237.952 180.872 237.216 181.064 236.512L183.624 228.352H186.696L180.936 244.992C180.53 246.101 180.061 247.072 179.528 247.904C178.994 248.736 178.344 249.387 177.576 249.856C176.829 250.325 175.912 250.56 174.824 250.56Z" fill="black"/>
<path d="M263.312 265V223.144H274.512C278.779 223.144 282.427 223.912 285.456 225.448C288.485 226.984 290.811 229.288 292.432 232.36C294.053 235.432 294.864 239.272 294.864 243.88C294.864 248.488 294.053 252.371 292.432 255.528C290.853 258.643 288.571 261.011 285.584 262.632C282.597 264.211 279.035 265 274.896 265H263.312ZM270.736 258.984H274C276.816 258.984 279.205 258.451 281.168 257.384C283.173 256.275 284.688 254.611 285.712 252.392C286.736 250.173 287.248 247.336 287.248 243.88C287.248 240.467 286.736 237.672 285.712 235.496C284.688 233.32 283.173 231.72 281.168 230.696C279.205 229.672 276.816 229.16 274 229.16H270.736V258.984ZM302.672 265V233.576H310.032V265H302.672ZM306.32 228.072C305.04 228.072 303.973 227.688 303.12 226.92C302.309 226.152 301.904 225.128 301.904 223.848C301.904 222.568 302.309 221.565 303.12 220.84C303.973 220.072 305.04 219.688 306.32 219.688C307.643 219.688 308.709 220.072 309.52 220.84C310.331 221.565 310.736 222.568 310.736 223.848C310.736 225.128 310.331 226.152 309.52 226.92C308.709 227.688 307.643 228.072 306.32 228.072ZM330.366 278.888C327.849 278.888 325.609 278.589 323.646 277.992C321.683 277.395 320.126 276.477 318.974 275.24C317.865 274.045 317.31 272.531 317.31 270.696C317.31 269.373 317.694 268.136 318.462 266.984C319.273 265.875 320.382 264.872 321.79 263.976V263.72C321.022 263.208 320.361 262.525 319.806 261.672C319.251 260.819 318.974 259.752 318.974 258.472C318.974 257.277 319.315 256.168 319.998 255.144C320.723 254.12 321.534 253.288 322.43 252.648V252.392C321.363 251.581 320.403 250.451 319.55 249C318.739 247.549 318.334 245.907 318.334 244.072C318.334 241.683 318.91 239.656 320.062 237.992C321.214 236.285 322.729 235.005 324.606 234.152C326.483 233.256 328.531 232.808 330.75 232.808C331.603 232.808 332.435 232.872 333.246 233C334.057 233.128 334.761 233.32 335.358 233.576H346.622V239.016H340.734V239.272C341.331 239.912 341.801 240.659 342.142 241.512C342.483 242.323 342.654 243.283 342.654 244.392C342.654 246.696 342.121 248.637 341.054 250.216C339.987 251.795 338.558 252.989 336.766 253.8C334.974 254.611 332.969 255.016 330.75 255.016C330.067 255.016 329.363 254.952 328.638 254.824C327.913 254.696 327.187 254.483 326.462 254.184C326.035 254.611 325.673 255.037 325.374 255.464C325.075 255.891 324.926 256.467 324.926 257.192C324.926 258.088 325.31 258.792 326.078 259.304C326.846 259.816 328.169 260.072 330.046 260.072H335.614C339.411 260.072 342.27 260.691 344.19 261.928C346.153 263.123 347.134 265.085 347.134 267.816C347.134 269.864 346.451 271.72 345.086 273.384C343.721 275.091 341.779 276.435 339.262 277.416C336.745 278.397 333.779 278.888 330.366 278.888ZM330.75 250.408C331.731 250.408 332.627 250.173 333.438 249.704C334.291 249.192 334.953 248.467 335.422 247.528C335.934 246.547 336.19 245.395 336.19 244.072C336.19 242.067 335.657 240.531 334.59 239.464C333.566 238.397 332.286 237.864 330.75 237.864C329.214 237.864 327.913 238.397 326.846 239.464C325.779 240.531 325.246 242.067 325.246 244.072C325.246 245.395 325.502 246.547 326.014 247.528C326.526 248.467 327.187 249.192 327.998 249.704C328.809 250.173 329.726 250.408 330.75 250.408ZM331.518 274.088C333.182 274.088 334.654 273.853 335.934 273.384C337.214 272.957 338.217 272.339 338.942 271.528C339.667 270.76 340.03 269.928 340.03 269.032C340.03 267.795 339.539 266.963 338.558 266.536C337.619 266.109 336.254 265.896 334.462 265.896H330.174C329.321 265.896 328.553 265.853 327.87 265.768C327.187 265.683 326.526 265.576 325.886 265.448C325.075 266.088 324.457 266.749 324.03 267.432C323.646 268.115 323.454 268.84 323.454 269.608C323.454 271.016 324.179 272.104 325.63 272.872C327.081 273.683 329.043 274.088 331.518 274.088ZM365.176 265.768C362.232 265.768 359.565 265.128 357.176 263.848C354.829 262.525 352.973 260.648 351.608 258.216C350.243 255.741 349.56 252.755 349.56 249.256C349.56 245.843 350.264 242.92 351.672 240.488C353.08 238.013 354.893 236.115 357.112 234.792C359.331 233.469 361.677 232.808 364.152 232.808C367.011 232.808 369.4 233.448 371.32 234.728C373.24 236.008 374.669 237.779 375.608 240.04C376.589 242.259 377.08 244.819 377.08 247.72C377.08 248.403 377.037 249.064 376.952 249.704C376.909 250.344 376.824 250.963 376.696 251.56H355.064V245.928H370.552C370.552 243.667 370.04 241.896 369.016 240.616C367.992 239.293 366.413 238.632 364.28 238.632C363.085 238.632 361.912 238.952 360.76 239.592C359.651 240.232 358.712 241.32 357.944 242.856C357.219 244.392 356.856 246.525 356.856 249.256C356.856 251.731 357.283 253.757 358.136 255.336C358.989 256.872 360.12 258.024 361.528 258.792C362.936 259.517 364.451 259.88 366.072 259.88C367.437 259.88 368.717 259.688 369.912 259.304C371.149 258.92 372.301 258.387 373.368 257.704L375.928 262.44C374.477 263.464 372.813 264.275 370.936 264.872C369.101 265.469 367.181 265.768 365.176 265.768ZM394.557 265.64C390.93 265.64 388.349 264.595 386.812 262.504C385.319 260.371 384.573 257.619 384.573 254.248V239.4H380.093V233.896L384.957 233.576L385.853 223.72H391.997V233.576H399.997V239.4H391.997V254.248C391.997 256.083 392.359 257.469 393.085 258.408C393.81 259.304 394.919 259.752 396.413 259.752C396.967 259.752 397.522 259.709 398.077 259.624C398.631 259.539 399.165 259.368 399.677 259.112L401.021 264.296C400.21 264.68 399.25 265 398.141 265.256C397.031 265.512 395.837 265.64 394.557 265.64ZM418.474 265.768C415.871 265.768 413.439 265.128 411.178 263.848C408.916 262.525 407.082 260.648 405.674 258.216C404.266 255.741 403.562 252.776 403.562 249.32C403.562 245.821 404.266 242.856 405.674 240.424C407.082 237.949 408.916 236.072 411.178 234.792C413.439 233.469 415.871 232.808 418.474 232.808C421.119 232.808 423.572 233.469 425.834 234.792C428.095 236.072 429.93 237.949 431.338 240.424C432.746 242.856 433.45 245.821 433.45 249.32C433.45 252.776 432.746 255.741 431.338 258.216C429.93 260.648 428.095 262.525 425.834 263.848C423.572 265.128 421.119 265.768 418.474 265.768ZM418.474 259.752C420.01 259.752 421.332 259.325 422.442 258.472C423.551 257.619 424.404 256.403 425.002 254.824C425.599 253.245 425.898 251.411 425.898 249.32C425.898 247.229 425.599 245.395 425.002 243.816C424.404 242.237 423.551 241.021 422.442 240.168C421.332 239.272 420.01 238.824 418.474 238.824C416.938 238.824 415.615 239.272 414.506 240.168C413.439 241.021 412.607 242.237 412.01 243.816C411.412 245.395 411.114 247.229 411.114 249.32C411.114 251.411 411.412 253.245 412.01 254.824C412.607 256.403 413.439 257.619 414.506 258.472C415.615 259.325 416.938 259.752 418.474 259.752Z" fill="black"/>
<defs>
<linearGradient id="paint0_linear_7_307" x1="211.803" y1="221" x2="211.803" y2="269" gradientUnits="userSpaceOnUse">
<stop stop-color="#64CACC"/>
<stop offset="0.29502" stop-color="#B1BB8A"/>
<stop offset="0.5" stop-color="#FEAC47"/>
<stop offset="0.75" stop-color="#FE8397"/>
<stop offset="0.95002" stop-color="#FC6ACB"/>
</linearGradient>
<linearGradient id="paint1_linear_7_307" x1="224.393" y1="221" x2="224.393" y2="269" gradientUnits="userSpaceOnUse">
<stop stop-color="#64CACC"/>
<stop offset="0.29502" stop-color="#B1BB8A"/>
<stop offset="0.5" stop-color="#FEAC47"/>
<stop offset="0.75" stop-color="#FE8397"/>
<stop offset="0.95002" stop-color="#FC6ACB"/>
</linearGradient>
</defs>
</svg>
